<?xml version="1.0" encoding="UTF-8" standalone="no"?>
<!DOCTYPE svg PUBLIC "-//W3C//DTD SVG 1.1//EN"
 "http://www.w3.org/Graphics/SVG/1.1/DTD/svg11.dtd">
<!-- Generated by graphviz version 2.43.0 (0)
 -->
<!-- Title: Dominator tree for &#39;ifWhile&#39; function Pages: 1 -->
<svg width="999pt" height="568pt"
 viewBox="0.00 0.00 999.00 568.00" xmlns="http://www.w3.org/2000/svg" xmlns:xlink="http://www.w3.org/1999/xlink">
<g id="graph0" class="graph" transform="scale(1 1) rotate(0) translate(4 564)">
<title>Dominator tree for &#39;ifWhile&#39; function</title>
<polygon fill="white" stroke="transparent" points="-4,4 -4,-564 995,-564 995,4 -4,4"/>
<text text-anchor="middle" x="495.5" y="-7.8" font-family="Times,serif" font-size="14.00">Dominator tree for &#39;ifWhile&#39; function</text>
<!-- Node0x56028fe09050 -->
<g id="node1" class="node">
<title>Node0x56028fe09050</title>
<polygon fill="none" stroke="black" points="441.5,-431.5 441.5,-559.5 686.5,-559.5 686.5,-431.5 441.5,-431.5"/>
<text text-anchor="start" x="449.5" y="-544.3" font-family="Times,serif" font-size="14.00">%0:</text>
<text text-anchor="start" x="449.5" y="-529.3" font-family="Times,serif" font-size="14.00"> %1 = alloca i32, align 4</text>
<text text-anchor="start" x="449.5" y="-514.3" font-family="Times,serif" font-size="14.00"> %2 = alloca i32, align 4</text>
<text text-anchor="start" x="449.5" y="-499.3" font-family="Times,serif" font-size="14.00"> store i32 0, i32* %1, align 4</text>
<text text-anchor="start" x="449.5" y="-484.3" font-family="Times,serif" font-size="14.00"> store i32 3, i32* %2, align 4</text>
<text text-anchor="start" x="449.5" y="-469.3" font-family="Times,serif" font-size="14.00"> %3 = load i32, i32* %1, align 4</text>
<text text-anchor="start" x="449.5" y="-454.3" font-family="Times,serif" font-size="14.00"> %4 = icmp eq i32 %3, 5</text>
<text text-anchor="start" x="449.5" y="-439.3" font-family="Times,serif" font-size="14.00"> br i1 %4, label %5, label %15</text>
</g>
<!-- Node0x56028fe06400 -->
<g id="node2" class="node">
<title>Node0x56028fe06400</title>
<polygon fill="none" stroke="black" points="315.5,-333 315.5,-387 418.5,-387 418.5,-333 315.5,-333"/>
<text text-anchor="start" x="323.5" y="-371.8" font-family="Times,serif" font-size="14.00">%5:</text>
<text text-anchor="start" x="323.5" y="-340.8" font-family="Times,serif" font-size="14.00"> br label %6</text>
</g>
<!-- Node0x56028fe09050&#45;&gt;Node0x56028fe06400 -->
<g id="edge1" class="edge">
<title>Node0x56028fe09050&#45;&gt;Node0x56028fe06400</title>
<path fill="none" stroke="black" d="M470.98,-431.46C451.3,-418.13 431.32,-404.59 414.21,-392.99"/>
<polygon fill="black" stroke="black" points="415.78,-389.83 405.54,-387.12 411.86,-395.63 415.78,-389.83"/>
</g>
<!-- Node0x56028fe0aa30 -->
<g id="node3" class="node">
<title>Node0x56028fe0aa30</title>
<polygon fill="none" stroke="black" points="437,-325.5 437,-394.5 691,-394.5 691,-325.5 437,-325.5"/>
<text text-anchor="start" x="445" y="-379.3" font-family="Times,serif" font-size="14.00">%25:</text>
<text text-anchor="start" x="445" y="-348.3" font-family="Times,serif" font-size="14.00"> %26 = load i32, i32* %2, align 4</text>
<text text-anchor="start" x="445" y="-333.3" font-family="Times,serif" font-size="14.00"> ret i32 %26</text>
</g>
<!-- Node0x56028fe09050&#45;&gt;Node0x56028fe0aa30 -->
<g id="edge2" class="edge">
<title>Node0x56028fe09050&#45;&gt;Node0x56028fe0aa30</title>
<path fill="none" stroke="black" d="M564,-431.27C564,-422.26 564,-413.17 564,-404.65"/>
<polygon fill="black" stroke="black" points="567.5,-404.58 564,-394.58 560.5,-404.58 567.5,-404.58"/>
</g>
<!-- Node0x56028fe08690 -->
<g id="node4" class="node">
<title>Node0x56028fe08690</title>
<polygon fill="none" stroke="black" points="709,-333 709,-387 821,-387 821,-333 709,-333"/>
<text text-anchor="start" x="717" y="-371.8" font-family="Times,serif" font-size="14.00">%15:</text>
<text text-anchor="start" x="717" y="-340.8" font-family="Times,serif" font-size="14.00"> br label %16</text>
</g>
<!-- Node0x56028fe09050&#45;&gt;Node0x56028fe08690 -->
<g id="edge3" class="edge">
<title>Node0x56028fe09050&#45;&gt;Node0x56028fe08690</title>
<path fill="none" stroke="black" d="M658.91,-431.46C679.17,-418 699.74,-404.34 717.31,-392.68"/>
<polygon fill="black" stroke="black" points="719.28,-395.57 725.67,-387.12 715.41,-389.74 719.28,-395.57"/>
</g>
<!-- Node0x56028fe0a7e0 -->
<g id="node5" class="node">
<title>Node0x56028fe0a7e0</title>
<polygon fill="none" stroke="black" points="244.5,-204.5 244.5,-288.5 489.5,-288.5 489.5,-204.5 244.5,-204.5"/>
<text text-anchor="start" x="252.5" y="-273.3" font-family="Times,serif" font-size="14.00">%6:</text>
<text text-anchor="start" x="252.5" y="-242.3" font-family="Times,serif" font-size="14.00"> %7 = load i32, i32* %2, align 4</text>
<text text-anchor="start" x="252.5" y="-227.3" font-family="Times,serif" font-size="14.00"> %8 = icmp eq i32 %7, 2</text>
<text text-anchor="start" x="252.5" y="-212.3" font-family="Times,serif" font-size="14.00"> br i1 %8, label %9, label %12</text>
</g>
<!-- Node0x56028fe06400&#45;&gt;Node0x56028fe0a7e0 -->
<g id="edge4" class="edge">
<title>Node0x56028fe06400&#45;&gt;Node0x56028fe0a7e0</title>
<path fill="none" stroke="black" d="M367,-332.86C367,-322.7 367,-310.7 367,-298.95"/>
<polygon fill="black" stroke="black" points="370.5,-298.75 367,-288.75 363.5,-298.75 370.5,-298.75"/>
</g>
<!-- Node0x56028fe0a460 -->
<g id="node8" class="node">
<title>Node0x56028fe0a460</title>
<polygon fill="none" stroke="black" points="638,-204.5 638,-288.5 892,-288.5 892,-204.5 638,-204.5"/>
<text text-anchor="start" x="646" y="-273.3" font-family="Times,serif" font-size="14.00">%16:</text>
<text text-anchor="start" x="646" y="-242.3" font-family="Times,serif" font-size="14.00"> %17 = load i32, i32* %1, align 4</text>
<text text-anchor="start" x="646" y="-227.3" font-family="Times,serif" font-size="14.00"> %18 = icmp slt i32 %17, 5</text>
<text text-anchor="start" x="646" y="-212.3" font-family="Times,serif" font-size="14.00"> br i1 %18, label %19, label %24</text>
</g>
<!-- Node0x56028fe08690&#45;&gt;Node0x56028fe0a460 -->
<g id="edge7" class="edge">
<title>Node0x56028fe08690&#45;&gt;Node0x56028fe0a460</title>
<path fill="none" stroke="black" d="M765,-332.86C765,-322.7 765,-310.7 765,-298.95"/>
<polygon fill="black" stroke="black" points="768.5,-298.75 765,-288.75 761.5,-298.75 768.5,-298.75"/>
</g>
<!-- Node0x56028fe0a090 -->
<g id="node6" class="node">
<title>Node0x56028fe0a090</title>
<polygon fill="none" stroke="black" points="0,-46 0,-145 254,-145 254,-46 0,-46"/>
<text text-anchor="start" x="8" y="-129.8" font-family="Times,serif" font-size="14.00">%9:</text>
<text text-anchor="start" x="8" y="-98.8" font-family="Times,serif" font-size="14.00"> %10 = load i32, i32* %2, align 4</text>
<text text-anchor="start" x="8" y="-83.8" font-family="Times,serif" font-size="14.00"> %11 = add nsw i32 %10, 2</text>
<text text-anchor="start" x="8" y="-68.8" font-family="Times,serif" font-size="14.00"> store i32 %11, i32* %2, align 4</text>
<text text-anchor="start" x="8" y="-53.8" font-family="Times,serif" font-size="14.00"> br label %6</text>
</g>
<!-- Node0x56028fe0a7e0&#45;&gt;Node0x56028fe0a090 -->
<g id="edge5" class="edge">
<title>Node0x56028fe0a7e0&#45;&gt;Node0x56028fe0a090</title>
<path fill="none" stroke="black" d="M300.78,-204.39C274,-187.76 242.71,-168.34 214.12,-150.59"/>
<polygon fill="black" stroke="black" points="215.68,-147.44 205.34,-145.14 211.99,-153.39 215.68,-147.44"/>
</g>
<!-- Node0x56028fe0aaf0 -->
<g id="node7" class="node">
<title>Node0x56028fe0aaf0</title>
<polygon fill="none" stroke="black" points="272,-46 272,-145 526,-145 526,-46 272,-46"/>
<text text-anchor="start" x="280" y="-129.8" font-family="Times,serif" font-size="14.00">%12:</text>
<text text-anchor="start" x="280" y="-98.8" font-family="Times,serif" font-size="14.00"> %13 = load i32, i32* %2, align 4</text>
<text text-anchor="start" x="280" y="-83.8" font-family="Times,serif" font-size="14.00"> %14 = add nsw i32 %13, 25</text>
<text text-anchor="start" x="280" y="-68.8" font-family="Times,serif" font-size="14.00"> store i32 %14, i32* %2, align 4</text>
<text text-anchor="start" x="280" y="-53.8" font-family="Times,serif" font-size="14.00"> br label %25</text>
</g>
<!-- Node0x56028fe0a7e0&#45;&gt;Node0x56028fe0aaf0 -->
<g id="edge6" class="edge">
<title>Node0x56028fe0a7e0&#45;&gt;Node0x56028fe0aaf0</title>
<path fill="none" stroke="black" d="M375.83,-204.39C379.09,-189.2 382.86,-171.67 386.39,-155.21"/>
<polygon fill="black" stroke="black" points="389.88,-155.65 388.55,-145.14 383.03,-154.18 389.88,-155.65"/>
</g>
<!-- Node0x56028fe0a6c0 -->
<g id="node9" class="node">
<title>Node0x56028fe0a6c0</title>
<polygon fill="none" stroke="black" points="607,-23.5 607,-167.5 861,-167.5 861,-23.5 607,-23.5"/>
<text text-anchor="start" x="615" y="-152.3" font-family="Times,serif" font-size="14.00">%19:</text>
<text text-anchor="start" x="615" y="-121.3" font-family="Times,serif" font-size="14.00"> %20 = load i32, i32* %2, align 4</text>
<text text-anchor="start" x="615" y="-106.3" font-family="Times,serif" font-size="14.00"> %21 = mul nsw i32 %20, 2</text>
<text text-anchor="start" x="615" y="-91.3" font-family="Times,serif" font-size="14.00"> store i32 %21, i32* %2, align 4</text>
<text text-anchor="start" x="615" y="-76.3" font-family="Times,serif" font-size="14.00"> %22 = load i32, i32* %1, align 4</text>
<text text-anchor="start" x="615" y="-61.3" font-family="Times,serif" font-size="14.00"> %23 = add nsw i32 %22, 1</text>
<text text-anchor="start" x="615" y="-46.3" font-family="Times,serif" font-size="14.00"> store i32 %23, i32* %1, align 4</text>
<text text-anchor="start" x="615" y="-31.3" font-family="Times,serif" font-size="14.00"> br label %16</text>
</g>
<!-- Node0x56028fe0a460&#45;&gt;Node0x56028fe0a6c0 -->
<g id="edge8" class="edge">
<title>Node0x56028fe0a460&#45;&gt;Node0x56028fe0a6c0</title>
<path fill="none" stroke="black" d="M756.45,-204.39C754.71,-196.04 752.83,-186.98 750.91,-177.79"/>
<polygon fill="black" stroke="black" points="754.29,-176.86 748.83,-167.78 747.44,-178.29 754.29,-176.86"/>
</g>
<!-- Node0x56028fe09f00 -->
<g id="node10" class="node">
<title>Node0x56028fe09f00</title>
<polygon fill="none" stroke="black" points="879,-68.5 879,-122.5 991,-122.5 991,-68.5 879,-68.5"/>
<text text-anchor="start" x="887" y="-107.3" font-family="Times,serif" font-size="14.00">%24:</text>
<text text-anchor="start" x="887" y="-76.3" font-family="Times,serif" font-size="14.00"> br label %25</text>
</g>
<!-- Node0x56028fe0a460&#45;&gt;Node0x56028fe09f00 -->
<g id="edge9" class="edge">
<title>Node0x56028fe0a460&#45;&gt;Node0x56028fe09f00</title>
<path fill="none" stroke="black" d="M824.92,-204.42C840.1,-193.18 856.04,-180.6 870,-168 882.67,-156.56 895.53,-142.93 906.43,-130.65"/>
<polygon fill="black" stroke="black" points="909.34,-132.64 913.29,-122.81 904.07,-128.03 909.34,-132.64"/>
</g>
</g>
</svg>
