<?xml version="1.0" encoding="UTF-8" standalone="no"?>
<!DOCTYPE svg PUBLIC "-//W3C//DTD SVG 1.1//EN"
 "http://www.w3.org/Graphics/SVG/1.1/DTD/svg11.dtd">
<!-- Generated by graphviz version 2.43.0 (0)
 -->
<!-- Title: Dominator tree for &#39;insertsort&#39; function Pages: 1 -->
<svg width="829pt" height="628pt"
 viewBox="0.00 0.00 828.50 628.00" xmlns="http://www.w3.org/2000/svg" xmlns:xlink="http://www.w3.org/1999/xlink">
<g id="graph0" class="graph" transform="scale(1 1) rotate(0) translate(4 624)">
<title>Dominator tree for &#39;insertsort&#39; function</title>
<polygon fill="white" stroke="transparent" points="-4,4 -4,-624 824.5,-624 824.5,4 -4,4"/>
<text text-anchor="middle" x="410.25" y="-7.8" font-family="Times,serif" font-size="14.00">Dominator tree for &#39;insertsort&#39; function</text>
<!-- Node0x560ec8ad0be0 -->
<g id="node1" class="node">
<title>Node0x560ec8ad0be0</title>
<polygon fill="none" stroke="black" points="411,-551.5 411,-619.5 656,-619.5 656,-551.5 411,-551.5"/>
<text text-anchor="start" x="419" y="-604.3" font-family="Times,serif" font-size="14.00">%1:</text>
<text text-anchor="start" x="419" y="-589.3" font-family="Times,serif" font-size="14.00"> %2 = load i32, i32* @n, align 4</text>
<text text-anchor="start" x="419" y="-574.3" font-family="Times,serif" font-size="14.00"> %3 = icmp sgt i32 %2, 1</text>
<text text-anchor="start" x="419" y="-559.3" font-family="Times,serif" font-size="14.00"> br i1 %3, label %4, label %26</text>
</g>
<!-- Node0x560ec8ad0b50 -->
<g id="node2" class="node">
<title>Node0x560ec8ad0b50</title>
<polygon fill="none" stroke="black" points="213.5,-415.5 213.5,-514.5 601.5,-514.5 601.5,-415.5 213.5,-415.5"/>
<text text-anchor="start" x="221.5" y="-499.3" font-family="Times,serif" font-size="14.00">%4:</text>
<text text-anchor="start" x="221.5" y="-468.3" font-family="Times,serif" font-size="14.00"> %5 = phi i64 [ %22, %17 ], [ 1, %1 ]</text>
<text text-anchor="start" x="221.5" y="-453.3" font-family="Times,serif" font-size="14.00"> %6 = getelementptr inbounds i32, i32* %0, i64 %5</text>
<text text-anchor="start" x="221.5" y="-438.3" font-family="Times,serif" font-size="14.00"> %7 = load i32, i32* %6, align 4</text>
<text text-anchor="start" x="221.5" y="-423.3" font-family="Times,serif" font-size="14.00"> br label %8</text>
</g>
<!-- Node0x560ec8ad0be0&#45;&gt;Node0x560ec8ad0b50 -->
<g id="edge1" class="edge">
<title>Node0x560ec8ad0be0&#45;&gt;Node0x560ec8ad0b50</title>
<path fill="none" stroke="black" d="M498.4,-551.49C488.58,-542.25 477.63,-531.95 466.82,-521.79"/>
<polygon fill="black" stroke="black" points="469.05,-519.09 459.37,-514.78 464.26,-524.18 469.05,-519.09"/>
</g>
<!-- Node0x560ec8ad1170 -->
<g id="node3" class="node">
<title>Node0x560ec8ad1170</title>
<polygon fill="none" stroke="black" points="619,-438 619,-492 702,-492 702,-438 619,-438"/>
<text text-anchor="start" x="627" y="-476.8" font-family="Times,serif" font-size="14.00">%26:</text>
<text text-anchor="start" x="627" y="-445.8" font-family="Times,serif" font-size="14.00"> ret i32 0</text>
</g>
<!-- Node0x560ec8ad0be0&#45;&gt;Node0x560ec8ad1170 -->
<g id="edge2" class="edge">
<title>Node0x560ec8ad0be0&#45;&gt;Node0x560ec8ad1170</title>
<path fill="none" stroke="black" d="M570.99,-551.22C583.64,-539.84 597.78,-526.97 610.5,-515 615.86,-509.96 621.47,-504.57 626.93,-499.27"/>
<polygon fill="black" stroke="black" points="629.52,-501.63 634.23,-492.14 624.63,-496.62 629.52,-501.63"/>
</g>
<!-- Node0x560ec8ad22a0 -->
<g id="node4" class="node">
<title>Node0x560ec8ad22a0</title>
<polygon fill="none" stroke="black" points="204.5,-249.5 204.5,-378.5 610.5,-378.5 610.5,-249.5 204.5,-249.5"/>
<text text-anchor="start" x="212.5" y="-363.3" font-family="Times,serif" font-size="14.00">%8:</text>
<text text-anchor="start" x="212.5" y="-332.3" font-family="Times,serif" font-size="14.00"> %9 = phi i64 [ %5, %4 ], [ %10, %14 ]</text>
<text text-anchor="start" x="212.5" y="-317.3" font-family="Times,serif" font-size="14.00"> %10 = add nsw i64 %9, &#45;1</text>
<text text-anchor="start" x="212.5" y="-302.3" font-family="Times,serif" font-size="14.00"> %11 = getelementptr inbounds i32, i32* %0, i64 %10</text>
<text text-anchor="start" x="212.5" y="-287.3" font-family="Times,serif" font-size="14.00"> %12 = load i32, i32* %11, align 4</text>
<text text-anchor="start" x="212.5" y="-272.3" font-family="Times,serif" font-size="14.00"> %13 = icmp slt i32 %7, %12</text>
<text text-anchor="start" x="212.5" y="-257.3" font-family="Times,serif" font-size="14.00"> br i1 %13, label %14, label %17</text>
</g>
<!-- Node0x560ec8ad0b50&#45;&gt;Node0x560ec8ad22a0 -->
<g id="edge3" class="edge">
<title>Node0x560ec8ad0b50&#45;&gt;Node0x560ec8ad22a0</title>
<path fill="none" stroke="black" d="M407.5,-415.21C407.5,-406.7 407.5,-397.68 407.5,-388.68"/>
<polygon fill="black" stroke="black" points="411,-388.55 407.5,-378.55 404,-388.55 411,-388.55"/>
</g>
<!-- Node0x560ec8ad0e50 -->
<g id="node5" class="node">
<title>Node0x560ec8ad0e50</title>
<polygon fill="none" stroke="black" points="0,-68.5 0,-167.5 397,-167.5 397,-68.5 0,-68.5"/>
<text text-anchor="start" x="8" y="-152.3" font-family="Times,serif" font-size="14.00">%14:</text>
<text text-anchor="start" x="8" y="-121.3" font-family="Times,serif" font-size="14.00"> %15 = getelementptr inbounds i32, i32* %0, i64 %9</text>
<text text-anchor="start" x="8" y="-106.3" font-family="Times,serif" font-size="14.00"> store i32 %12, i32* %15, align 4</text>
<text text-anchor="start" x="8" y="-91.3" font-family="Times,serif" font-size="14.00"> %16 = icmp sgt i64 %9, 1</text>
<text text-anchor="start" x="8" y="-76.3" font-family="Times,serif" font-size="14.00"> br i1 %16, label %8, label %17</text>
</g>
<!-- Node0x560ec8ad22a0&#45;&gt;Node0x560ec8ad0e50 -->
<g id="edge4" class="edge">
<title>Node0x560ec8ad22a0&#45;&gt;Node0x560ec8ad0e50</title>
<path fill="none" stroke="black" d="M339.07,-249.48C312.95,-225.24 283.41,-197.82 258.18,-174.4"/>
<polygon fill="black" stroke="black" points="260.55,-171.82 250.84,-167.58 255.79,-176.95 260.55,-171.82"/>
</g>
<!-- Node0x560ec8ad0ac0 -->
<g id="node6" class="node">
<title>Node0x560ec8ad0ac0</title>
<polygon fill="none" stroke="black" points="414.5,-23.5 414.5,-212.5 820.5,-212.5 820.5,-23.5 414.5,-23.5"/>
<text text-anchor="start" x="422.5" y="-197.3" font-family="Times,serif" font-size="14.00">%17:</text>
<text text-anchor="start" x="422.5" y="-166.3" font-family="Times,serif" font-size="14.00"> %18 = phi i64 [ %9, %8 ], [ %10, %14 ]</text>
<text text-anchor="start" x="422.5" y="-151.3" font-family="Times,serif" font-size="14.00"> %19 = shl i64 %18, 32</text>
<text text-anchor="start" x="422.5" y="-136.3" font-family="Times,serif" font-size="14.00"> %20 = ashr exact i64 %19, 32</text>
<text text-anchor="start" x="422.5" y="-121.3" font-family="Times,serif" font-size="14.00"> %21 = getelementptr inbounds i32, i32* %0, i64 %20</text>
<text text-anchor="start" x="422.5" y="-106.3" font-family="Times,serif" font-size="14.00"> store i32 %7, i32* %21, align 4</text>
<text text-anchor="start" x="422.5" y="-91.3" font-family="Times,serif" font-size="14.00"> %22 = add nuw nsw i64 %5, 1</text>
<text text-anchor="start" x="422.5" y="-76.3" font-family="Times,serif" font-size="14.00"> %23 = load i32, i32* @n, align 4</text>
<text text-anchor="start" x="422.5" y="-61.3" font-family="Times,serif" font-size="14.00"> %24 = sext i32 %23 to i64</text>
<text text-anchor="start" x="422.5" y="-46.3" font-family="Times,serif" font-size="14.00"> %25 = icmp slt i64 %22, %24</text>
<text text-anchor="start" x="422.5" y="-31.3" font-family="Times,serif" font-size="14.00"> br i1 %25, label %4, label %26</text>
</g>
<!-- Node0x560ec8ad22a0&#45;&gt;Node0x560ec8ad0ac0 -->
<g id="edge5" class="edge">
<title>Node0x560ec8ad22a0&#45;&gt;Node0x560ec8ad0ac0</title>
<path fill="none" stroke="black" d="M476.26,-249.48C486.66,-239.87 497.6,-229.76 508.6,-219.6"/>
<polygon fill="black" stroke="black" points="511.24,-221.92 516.21,-212.57 506.49,-216.78 511.24,-221.92"/>
</g>
</g>
</svg>
