<?xml version="1.0" encoding="UTF-8" standalone="no"?>
<!DOCTYPE svg PUBLIC "-//W3C//DTD SVG 1.1//EN"
 "http://www.w3.org/Graphics/SVG/1.1/DTD/svg11.dtd">
<!-- Generated by graphviz version 2.43.0 (0)
 -->
<!-- Title: Dominator tree for &#39;f&#39; function Pages: 1 -->
<svg width="892pt" height="1741pt"
 viewBox="0.00 0.00 892.00 1741.00" xmlns="http://www.w3.org/2000/svg" xmlns:xlink="http://www.w3.org/1999/xlink">
<g id="graph0" class="graph" transform="scale(1 1) rotate(0) translate(4 1737)">
<title>Dominator tree for &#39;f&#39; function</title>
<polygon fill="white" stroke="transparent" points="-4,4 -4,-1737 888,-1737 888,4 -4,4"/>
<text text-anchor="middle" x="442" y="-7.8" font-family="Times,serif" font-size="14.00">Dominator tree for &#39;f&#39; function</text>
<!-- Node0x5636256a77a0 -->
<g id="node1" class="node">
<title>Node0x5636256a77a0</title>
<polygon fill="none" stroke="black" points="559,-1634.5 559,-1732.5 794,-1732.5 794,-1634.5 559,-1634.5"/>
<text text-anchor="start" x="567" y="-1717.3" font-family="Times,serif" font-size="14.00">%1:</text>
<text text-anchor="start" x="567" y="-1702.3" font-family="Times,serif" font-size="14.00"> %2 = alloca i32, align 4</text>
<text text-anchor="start" x="567" y="-1687.3" font-family="Times,serif" font-size="14.00"> %3 = alloca i32, align 4</text>
<text text-anchor="start" x="567" y="-1672.3" font-family="Times,serif" font-size="14.00"> store i32 %0, i32* %2, align 4</text>
<text text-anchor="start" x="567" y="-1657.3" font-family="Times,serif" font-size="14.00"> store i32 1, i32* %3, align 4</text>
<text text-anchor="start" x="567" y="-1642.3" font-family="Times,serif" font-size="14.00"> br label %4</text>
</g>
<!-- Node0x5636256a7060 -->
<g id="node2" class="node">
<title>Node0x5636256a7060</title>
<polygon fill="none" stroke="black" points="554,-1498.5 554,-1597.5 799,-1597.5 799,-1498.5 554,-1498.5"/>
<text text-anchor="start" x="562" y="-1582.3" font-family="Times,serif" font-size="14.00">%4:</text>
<text text-anchor="start" x="562" y="-1551.3" font-family="Times,serif" font-size="14.00"> %5 = load i32, i32* %3, align 4</text>
<text text-anchor="start" x="562" y="-1536.3" font-family="Times,serif" font-size="14.00"> %6 = load i32, i32* @n, align 4</text>
<text text-anchor="start" x="562" y="-1521.3" font-family="Times,serif" font-size="14.00"> %7 = icmp sle i32 %5, %6</text>
<text text-anchor="start" x="562" y="-1506.3" font-family="Times,serif" font-size="14.00"> br i1 %7, label %8, label %77</text>
</g>
<!-- Node0x5636256a77a0&#45;&gt;Node0x5636256a7060 -->
<g id="edge1" class="edge">
<title>Node0x5636256a77a0&#45;&gt;Node0x5636256a7060</title>
<path fill="none" stroke="black" d="M676.5,-1634.3C676.5,-1625.71 676.5,-1616.68 676.5,-1607.83"/>
<polygon fill="black" stroke="black" points="680,-1607.57 676.5,-1597.57 673,-1607.57 680,-1607.57"/>
</g>
<!-- Node0x5636256a70a0 -->
<g id="node3" class="node">
<title>Node0x5636256a70a0</title>
<polygon fill="none" stroke="black" points="228.5,-1332.5 228.5,-1461.5 788.5,-1461.5 788.5,-1332.5 228.5,-1332.5"/>
<text text-anchor="start" x="236.5" y="-1446.3" font-family="Times,serif" font-size="14.00">%8:</text>
<text text-anchor="start" x="236.5" y="-1415.3" font-family="Times,serif" font-size="14.00"> %9 = load i32, i32* %3, align 4</text>
<text text-anchor="start" x="236.5" y="-1400.3" font-family="Times,serif" font-size="14.00"> %10 = sext i32 %9 to i64</text>
<text text-anchor="start" x="236.5" y="-1385.3" font-family="Times,serif" font-size="14.00"> %11 = getelementptr inbounds [50 x i32], [50 x i32]* @row, i64 0, i64 %10</text>
<text text-anchor="start" x="236.5" y="-1370.3" font-family="Times,serif" font-size="14.00"> %12 = load i32, i32* %11, align 4</text>
<text text-anchor="start" x="236.5" y="-1355.3" font-family="Times,serif" font-size="14.00"> %13 = icmp ne i32 %12, 1</text>
<text text-anchor="start" x="236.5" y="-1340.3" font-family="Times,serif" font-size="14.00"> br i1 %13, label %14, label %74</text>
</g>
<!-- Node0x5636256a7060&#45;&gt;Node0x5636256a70a0 -->
<g id="edge2" class="edge">
<title>Node0x5636256a7060&#45;&gt;Node0x5636256a70a0</title>
<path fill="none" stroke="black" d="M621.49,-1498.21C610.66,-1488.6 599.09,-1478.35 587.65,-1468.19"/>
<polygon fill="black" stroke="black" points="589.95,-1465.56 580.15,-1461.55 585.31,-1470.8 589.95,-1465.56"/>
</g>
<!-- Node0x5636256aef90 -->
<g id="node4" class="node">
<title>Node0x5636256aef90</title>
<polygon fill="none" stroke="black" points="807,-1370 807,-1424 884,-1424 884,-1370 807,-1370"/>
<text text-anchor="start" x="815" y="-1408.8" font-family="Times,serif" font-size="14.00">%77:</text>
<text text-anchor="start" x="815" y="-1377.8" font-family="Times,serif" font-size="14.00"> ret void</text>
</g>
<!-- Node0x5636256a7060&#45;&gt;Node0x5636256aef90 -->
<g id="edge3" class="edge">
<title>Node0x5636256a7060&#45;&gt;Node0x5636256aef90</title>
<path fill="none" stroke="black" d="M753.6,-1498.33C768.85,-1487.22 784.23,-1474.87 797.5,-1462 806.62,-1453.16 815.34,-1442.48 822.79,-1432.39"/>
<polygon fill="black" stroke="black" points="825.75,-1434.28 828.73,-1424.11 820.06,-1430.2 825.75,-1434.28"/>
</g>
<!-- Node0x5636256aedb0 -->
<g id="node5" class="node">
<title>Node0x5636256aedb0</title>
<polygon fill="none" stroke="black" points="9,-1136.5 9,-1295.5 578,-1295.5 578,-1136.5 9,-1136.5"/>
<text text-anchor="start" x="17" y="-1280.3" font-family="Times,serif" font-size="14.00">%14:</text>
<text text-anchor="start" x="17" y="-1249.3" font-family="Times,serif" font-size="14.00"> %15 = load i32, i32* %2, align 4</text>
<text text-anchor="start" x="17" y="-1234.3" font-family="Times,serif" font-size="14.00"> %16 = load i32, i32* %3, align 4</text>
<text text-anchor="start" x="17" y="-1219.3" font-family="Times,serif" font-size="14.00"> %17 = add nsw i32 %15, %16</text>
<text text-anchor="start" x="17" y="-1204.3" font-family="Times,serif" font-size="14.00"> %18 = sext i32 %17 to i64</text>
<text text-anchor="start" x="17" y="-1189.3" font-family="Times,serif" font-size="14.00"> %19 = getelementptr inbounds [50 x i32], [50 x i32]* @line1, i64 0, i64 %18</text>
<text text-anchor="start" x="17" y="-1174.3" font-family="Times,serif" font-size="14.00"> %20 = load i32, i32* %19, align 4</text>
<text text-anchor="start" x="17" y="-1159.3" font-family="Times,serif" font-size="14.00"> %21 = icmp eq i32 %20, 0</text>
<text text-anchor="start" x="17" y="-1144.3" font-family="Times,serif" font-size="14.00"> br i1 %21, label %22, label %74</text>
</g>
<!-- Node0x5636256a70a0&#45;&gt;Node0x5636256aedb0 -->
<g id="edge4" class="edge">
<title>Node0x5636256a70a0&#45;&gt;Node0x5636256aedb0</title>
<path fill="none" stroke="black" d="M432.09,-1332.39C420.41,-1322.66 408.19,-1312.49 396.06,-1302.38"/>
<polygon fill="black" stroke="black" points="398.02,-1299.47 388.1,-1295.76 393.55,-1304.85 398.02,-1299.47"/>
</g>
<!-- Node0x5636256aee30 -->
<g id="node6" class="node">
<title>Node0x5636256aee30</title>
<polygon fill="none" stroke="black" points="596.5,-1166.5 596.5,-1265.5 850.5,-1265.5 850.5,-1166.5 596.5,-1166.5"/>
<text text-anchor="start" x="604.5" y="-1250.3" font-family="Times,serif" font-size="14.00">%74:</text>
<text text-anchor="start" x="604.5" y="-1219.3" font-family="Times,serif" font-size="14.00"> %75 = load i32, i32* %3, align 4</text>
<text text-anchor="start" x="604.5" y="-1204.3" font-family="Times,serif" font-size="14.00"> %76 = add nsw i32 %75, 1</text>
<text text-anchor="start" x="604.5" y="-1189.3" font-family="Times,serif" font-size="14.00"> store i32 %76, i32* %3, align 4</text>
<text text-anchor="start" x="604.5" y="-1174.3" font-family="Times,serif" font-size="14.00"> br label %4</text>
</g>
<!-- Node0x5636256a70a0&#45;&gt;Node0x5636256aee30 -->
<g id="edge5" class="edge">
<title>Node0x5636256a70a0&#45;&gt;Node0x5636256aee30</title>
<path fill="none" stroke="black" d="M584.91,-1332.39C608.44,-1312.79 634.16,-1291.38 656.97,-1272.39"/>
<polygon fill="black" stroke="black" points="659.47,-1274.86 664.91,-1265.78 654.99,-1269.48 659.47,-1274.86"/>
</g>
<!-- Node0x5636256aedf0 -->
<g id="node7" class="node">
<title>Node0x5636256aedf0</title>
<polygon fill="none" stroke="black" points="0,-910.5 0,-1099.5 587,-1099.5 587,-910.5 0,-910.5"/>
<text text-anchor="start" x="8" y="-1084.3" font-family="Times,serif" font-size="14.00">%22:</text>
<text text-anchor="start" x="8" y="-1053.3" font-family="Times,serif" font-size="14.00"> %23 = load i32, i32* @n, align 4</text>
<text text-anchor="start" x="8" y="-1038.3" font-family="Times,serif" font-size="14.00"> %24 = load i32, i32* %2, align 4</text>
<text text-anchor="start" x="8" y="-1023.3" font-family="Times,serif" font-size="14.00"> %25 = add nsw i32 %23, %24</text>
<text text-anchor="start" x="8" y="-1008.3" font-family="Times,serif" font-size="14.00"> %26 = load i32, i32* %3, align 4</text>
<text text-anchor="start" x="8" y="-993.3" font-family="Times,serif" font-size="14.00"> %27 = sub nsw i32 %25, %26</text>
<text text-anchor="start" x="8" y="-978.3" font-family="Times,serif" font-size="14.00"> %28 = sext i32 %27 to i64</text>
<text text-anchor="start" x="8" y="-963.3" font-family="Times,serif" font-size="14.00"> %29 = getelementptr inbounds [100 x i32], [100 x i32]* @line2, i64 0, i64 %28</text>
<text text-anchor="start" x="8" y="-948.3" font-family="Times,serif" font-size="14.00"> %30 = load i32, i32* %29, align 4</text>
<text text-anchor="start" x="8" y="-933.3" font-family="Times,serif" font-size="14.00"> %31 = icmp ne i32 %30, 0</text>
<text text-anchor="start" x="8" y="-918.3" font-family="Times,serif" font-size="14.00"> br i1 %31, label %74, label %32</text>
</g>
<!-- Node0x5636256aedb0&#45;&gt;Node0x5636256aedf0 -->
<g id="edge6" class="edge">
<title>Node0x5636256aedb0&#45;&gt;Node0x5636256aedf0</title>
<path fill="none" stroke="black" d="M293.5,-1136.28C293.5,-1127.62 293.5,-1118.71 293.5,-1109.81"/>
<polygon fill="black" stroke="black" points="297,-1109.77 293.5,-1099.77 290,-1109.77 297,-1109.77"/>
</g>
<!-- Node0x5636256aee90 -->
<g id="node8" class="node">
<title>Node0x5636256aee90</title>
<polygon fill="none" stroke="black" points="14,-699.5 14,-873.5 573,-873.5 573,-699.5 14,-699.5"/>
<text text-anchor="start" x="22" y="-858.3" font-family="Times,serif" font-size="14.00">%32:</text>
<text text-anchor="start" x="22" y="-827.3" font-family="Times,serif" font-size="14.00"> %33 = load i32, i32* %3, align 4</text>
<text text-anchor="start" x="22" y="-812.3" font-family="Times,serif" font-size="14.00"> %34 = load i32, i32* %2, align 4</text>
<text text-anchor="start" x="22" y="-797.3" font-family="Times,serif" font-size="14.00"> %35 = sext i32 %34 to i64</text>
<text text-anchor="start" x="22" y="-782.3" font-family="Times,serif" font-size="14.00"> %36 = getelementptr inbounds [50 x i32], [50 x i32]* @ans, i64 0, i64 %35</text>
<text text-anchor="start" x="22" y="-767.3" font-family="Times,serif" font-size="14.00"> store i32 %33, i32* %36, align 4</text>
<text text-anchor="start" x="22" y="-752.3" font-family="Times,serif" font-size="14.00"> %37 = load i32, i32* %2, align 4</text>
<text text-anchor="start" x="22" y="-737.3" font-family="Times,serif" font-size="14.00"> %38 = load i32, i32* @n, align 4</text>
<text text-anchor="start" x="22" y="-722.3" font-family="Times,serif" font-size="14.00"> %39 = icmp eq i32 %37, %38</text>
<text text-anchor="start" x="22" y="-707.3" font-family="Times,serif" font-size="14.00"> br i1 %39, label %40, label %41</text>
</g>
<!-- Node0x5636256aedf0&#45;&gt;Node0x5636256aee90 -->
<g id="edge7" class="edge">
<title>Node0x5636256aedf0&#45;&gt;Node0x5636256aee90</title>
<path fill="none" stroke="black" d="M293.5,-910.3C293.5,-901.59 293.5,-892.76 293.5,-884.03"/>
<polygon fill="black" stroke="black" points="297,-883.84 293.5,-873.84 290,-883.84 297,-883.84"/>
</g>
<!-- Node0x5636256aeed0 -->
<g id="node9" class="node">
<title>Node0x5636256aeed0</title>
<polygon fill="none" stroke="black" points="10.5,-308.5 10.5,-377.5 180.5,-377.5 180.5,-308.5 10.5,-308.5"/>
<text text-anchor="start" x="18.5" y="-362.3" font-family="Times,serif" font-size="14.00">%40:</text>
<text text-anchor="start" x="18.5" y="-331.3" font-family="Times,serif" font-size="14.00"> call void @printans()</text>
<text text-anchor="start" x="18.5" y="-316.3" font-family="Times,serif" font-size="14.00"> br label %41</text>
</g>
<!-- Node0x5636256aee90&#45;&gt;Node0x5636256aeed0 -->
<g id="edge8" class="edge">
<title>Node0x5636256aee90&#45;&gt;Node0x5636256aeed0</title>
<path fill="none" stroke="black" d="M212.99,-699.38C204.3,-687.67 196.2,-675.4 189.5,-663 140.25,-571.81 113.85,-451.66 102.47,-388"/>
<polygon fill="black" stroke="black" points="105.88,-387.15 100.71,-377.91 98.98,-388.36 105.88,-387.15"/>
</g>
<!-- Node0x5636256aef30 -->
<g id="node10" class="node">
<title>Node0x5636256aef30</title>
<polygon fill="none" stroke="black" points="198,-23.5 198,-662.5 785,-662.5 785,-23.5 198,-23.5"/>
<text text-anchor="start" x="206" y="-647.3" font-family="Times,serif" font-size="14.00">%41:</text>
<text text-anchor="start" x="206" y="-616.3" font-family="Times,serif" font-size="14.00"> %42 = load i32, i32* %3, align 4</text>
<text text-anchor="start" x="206" y="-601.3" font-family="Times,serif" font-size="14.00"> %43 = sext i32 %42 to i64</text>
<text text-anchor="start" x="206" y="-586.3" font-family="Times,serif" font-size="14.00"> %44 = getelementptr inbounds [50 x i32], [50 x i32]* @row, i64 0, i64 %43</text>
<text text-anchor="start" x="206" y="-571.3" font-family="Times,serif" font-size="14.00"> store i32 1, i32* %44, align 4</text>
<text text-anchor="start" x="206" y="-556.3" font-family="Times,serif" font-size="14.00"> %45 = load i32, i32* %2, align 4</text>
<text text-anchor="start" x="206" y="-541.3" font-family="Times,serif" font-size="14.00"> %46 = load i32, i32* %3, align 4</text>
<text text-anchor="start" x="206" y="-526.3" font-family="Times,serif" font-size="14.00"> %47 = add nsw i32 %45, %46</text>
<text text-anchor="start" x="206" y="-511.3" font-family="Times,serif" font-size="14.00"> %48 = sext i32 %47 to i64</text>
<text text-anchor="start" x="206" y="-496.3" font-family="Times,serif" font-size="14.00"> %49 = getelementptr inbounds [50 x i32], [50 x i32]* @line1, i64 0, i64 %48</text>
<text text-anchor="start" x="206" y="-481.3" font-family="Times,serif" font-size="14.00"> store i32 1, i32* %49, align 4</text>
<text text-anchor="start" x="206" y="-466.3" font-family="Times,serif" font-size="14.00"> %50 = load i32, i32* @n, align 4</text>
<text text-anchor="start" x="206" y="-451.3" font-family="Times,serif" font-size="14.00"> %51 = load i32, i32* %2, align 4</text>
<text text-anchor="start" x="206" y="-436.3" font-family="Times,serif" font-size="14.00"> %52 = add nsw i32 %50, %51</text>
<text text-anchor="start" x="206" y="-421.3" font-family="Times,serif" font-size="14.00"> %53 = load i32, i32* %3, align 4</text>
<text text-anchor="start" x="206" y="-406.3" font-family="Times,serif" font-size="14.00"> %54 = sub nsw i32 %52, %53</text>
<text text-anchor="start" x="206" y="-391.3" font-family="Times,serif" font-size="14.00"> %55 = sext i32 %54 to i64</text>
<text text-anchor="start" x="206" y="-376.3" font-family="Times,serif" font-size="14.00"> %56 = getelementptr inbounds [100 x i32], [100 x i32]* @line2, i64 0, i64 %55</text>
<text text-anchor="start" x="206" y="-361.3" font-family="Times,serif" font-size="14.00"> store i32 1, i32* %56, align 4</text>
<text text-anchor="start" x="206" y="-346.3" font-family="Times,serif" font-size="14.00"> %57 = load i32, i32* %2, align 4</text>
<text text-anchor="start" x="206" y="-331.3" font-family="Times,serif" font-size="14.00"> %58 = add nsw i32 %57, 1</text>
<text text-anchor="start" x="206" y="-316.3" font-family="Times,serif" font-size="14.00"> call void @f(i32 %58)</text>
<text text-anchor="start" x="206" y="-301.3" font-family="Times,serif" font-size="14.00"> %59 = load i32, i32* %3, align 4</text>
<text text-anchor="start" x="206" y="-286.3" font-family="Times,serif" font-size="14.00"> %60 = sext i32 %59 to i64</text>
<text text-anchor="start" x="206" y="-271.3" font-family="Times,serif" font-size="14.00"> %61 = getelementptr inbounds [50 x i32], [50 x i32]* @row, i64 0, i64 %60</text>
<text text-anchor="start" x="206" y="-256.3" font-family="Times,serif" font-size="14.00"> store i32 0, i32* %61, align 4</text>
<text text-anchor="start" x="206" y="-241.3" font-family="Times,serif" font-size="14.00"> %62 = load i32, i32* %2, align 4</text>
<text text-anchor="start" x="206" y="-226.3" font-family="Times,serif" font-size="14.00"> %63 = load i32, i32* %3, align 4</text>
<text text-anchor="start" x="206" y="-211.3" font-family="Times,serif" font-size="14.00"> %64 = add nsw i32 %62, %63</text>
<text text-anchor="start" x="206" y="-196.3" font-family="Times,serif" font-size="14.00"> %65 = sext i32 %64 to i64</text>
<text text-anchor="start" x="206" y="-181.3" font-family="Times,serif" font-size="14.00"> %66 = getelementptr inbounds [50 x i32], [50 x i32]* @line1, i64 0, i64 %65</text>
<text text-anchor="start" x="206" y="-166.3" font-family="Times,serif" font-size="14.00"> store i32 0, i32* %66, align 4</text>
<text text-anchor="start" x="206" y="-151.3" font-family="Times,serif" font-size="14.00"> %67 = load i32, i32* @n, align 4</text>
<text text-anchor="start" x="206" y="-136.3" font-family="Times,serif" font-size="14.00"> %68 = load i32, i32* %2, align 4</text>
<text text-anchor="start" x="206" y="-121.3" font-family="Times,serif" font-size="14.00"> %69 = add nsw i32 %67, %68</text>
<text text-anchor="start" x="206" y="-106.3" font-family="Times,serif" font-size="14.00"> %70 = load i32, i32* %3, align 4</text>
<text text-anchor="start" x="206" y="-91.3" font-family="Times,serif" font-size="14.00"> %71 = sub nsw i32 %69, %70</text>
<text text-anchor="start" x="206" y="-76.3" font-family="Times,serif" font-size="14.00"> %72 = sext i32 %71 to i64</text>
<text text-anchor="start" x="206" y="-61.3" font-family="Times,serif" font-size="14.00"> %73 = getelementptr inbounds [100 x i32], [100 x i32]* @line2, i64 0, i64 %72</text>
<text text-anchor="start" x="206" y="-46.3" font-family="Times,serif" font-size="14.00"> store i32 0, i32* %73, align 4</text>
<text text-anchor="start" x="206" y="-31.3" font-family="Times,serif" font-size="14.00"> br label %74</text>
</g>
<!-- Node0x5636256aee90&#45;&gt;Node0x5636256aef30 -->
<g id="edge9" class="edge">
<title>Node0x5636256aee90&#45;&gt;Node0x5636256aef30</title>
<path fill="none" stroke="black" d="M332.15,-699.33C336.07,-690.58 340.2,-681.37 344.48,-671.82"/>
<polygon fill="black" stroke="black" points="347.74,-673.11 348.64,-662.55 341.35,-670.24 347.74,-673.11"/>
</g>
</g>
</svg>
